#!OML:ASF I:\Actors\actors\Patient Classification 2\Patient 1\Session 1\actor1.ASF
:FULLY-SPECIFIED
:DEGREES
343
root -1.35137 18.6979 5.68393 4.14769 15.7818 -7.04464
lowerback 5.12453 4.7852 -12.1595
upperback 0.672004 5.50008 -9.0937
thorax -2.40078 2.81969 -3.20911
lowerneck -13.5816 5.97089 7.98884
upperneck 29.0826 5.31902 4.95546
head 11.947 3.94425 1.26982
rclavicle -4.77083e-015 3.49861e-014
rhumerus 91.4857 51.6944 -2.83068
rradius 107.479
rwrist -34.9052
rhand 11.1383 -31.4695
rfingers 7.12502
rthumb 36.2051 -57.7353
lclavicle -4.77083e-015 3.49861e-014
lhumerus -75.7828 -4.23706 63.9667
lradius 43.4131
lwrist 41.8938
lhand -37.2619 -7.74877
lfingers 7.12502
lthumb -10.3273 21.9777
rfemur 0 0 0
rtibia 0
rfoot 0 0
rtoes 0
lfemur -14.8074 -16.8718 -1.89577
ltibia 24.2323
lfoot -21.0533 14.3836
ltoes -57.7592
344
root -1.355 18.6945 5.71225 4.06141 16.0609 -7.06202
lowerback 5.05877 4.63852 -12.203
upperback 0.536963 5.29791 -9.15219
thorax -2.49856 2.72684 -3.23241
lowerneck -13.4183 6.19098 8.14115
upperneck 28.8866 5.60366 5.02405
head 11.8465 4.09088 1.29898
rclavicle 3.97569e-015 -1.01778e-013
rhumerus 91.8799 51.6699 -2.90618
rradius 107.442
rwrist -35.2358
rhand 11.1364 -31.8266
rfingers 7.12502
rthumb 36.2034 -58.0929
lclavicle 3.97569e-015 -1.01778e-013
lhumerus -73.7686 -1.76636 58.0301
lradius 41.3847
lwrist 39.1776
lhand -36.7368 -7.92963
lfingers 7.12502
lthumb -9.82074 21.8214
rfemur 0 0 0
rtibia 0
rfoot 0 0
rtoes 0
lfemur -14.7735 -17.1891 -1.84788
ltibia 24.3185
lfoot -21.2473 14.3828
ltoes -57.7364
345
root -1.35232 18.689 5.73441 3.81551 16.413 -7.28263
lowerback 5.20642 4.51291 -11.9336
upperback 0.387797 5.10024 -9.14674
thorax -2.71113 2.63734 -3.37382
lowerneck -13.2544 6.28562 8.26738
upperneck 28.7053 5.75022 4.96591
head 11.752 4.15783 1.26531
rclavicle 1.98785e-014 -1.90833e-014
rhumerus 92.1893 51.7209 -2.84015
rradius 107.505
rwrist -35.7183
rhand 10.8706 -32.0861
rfingers 7.12502
rthumb 35.9516 -58.4145
lclavicle 1.98785e-014 -1.90833e-014
lhumerus -72.04 1.60172 51.2751
lradius 40.1672
lwrist 36.2023
lhand -36.4902 -8.0896
lfingers 7.12502
lthumb -9.58276 21.6725
rfemur 0 0 0
rtibia 0
rfoot 0 0
rtoes 0
lfemur -14.6296 -17.4193 -1.63378
ltibia 24.3511
lfoot -21.3207 14.2522
ltoes -57.7306
346
root -1.33538 18.68 5.74585 3.33145 16.8486 -7.75888
lowerback 5.56757 4.42856 -11.1293
upperback 0.299871 4.96434 -9.08815
thorax -2.94149 2.57157 -3.76348
lowerneck -13.1305 6.24706 8.41181
upperneck 28.596 5.74542 4.72594
head 11.6976 4.13864 1.14412
rclavicle -1.66979e-014 -3.49861e-014
rhumerus 92.1846 51.7219 -2.74887
rradius 107.702
rwrist -36.4438
rhand 10.7839 -32.5183
rfingers 7.12502
rthumb 35.8695 -58.8668
lclavicle -1.66979e-014 -3.49861e-014
lhumerus -70.9507 5.19826 44.8181
lradius 40.0413
lwrist 33.57
lhand -36.9323 -8.54327
lfingers 7.12502
lthumb -10.0094 21.1987
rfemur 0 0 0
rtibia 0
rfoot 0 0
rtoes 0
lfemur -14.333 -17.5208 -1.26117
ltibia 24.3905
lfoot -21.2525 13.9571
ltoes -57.8716
347
root -1.35984 18.6789 5.79179 3.57458 16.8497 -7.35551
lowerback 4.91747 4.47241 -12.0531
upperback 0.181503 5.06758 -9.06992
thorax -2.78431 2.62934 -3.21294
lowerneck -13.0554 6.21922 8.36898
upperneck 28.5228 5.74234 4.68021
head 11.6523 4.12603 1.12803
rclavicle 8.74653e-015 5.40694e-014
rhumerus 92.1336 51.6723 -2.55822
rradius 107.94
rwrist -37.1081
rhand 10.9079 -32.9453
rfingers 7.12502
rthumb 35.987 -59.265
lclavicle 8.74653e-015 5.40694e-014
lhumerus -69.9845 8.80297 39.0347
lradius 40.0699
lwrist 31.3531
lhand -37.5043 -9.40848
lfingers 7.12502
lthumb -10.5611 20.3062
rfemur 0 0 0
rtibia 0
rfoot 0 0
rtoes 0
lfemur -14.3927 -17.7281 -1.54304
ltibia 24.3986
lfoot -21.3918 14.1564
ltoes -57.8829
348
root -1.37146 18.6756 5.82587 3.59235 16.9709 -7.25839
lowerback 4.53128 4.46976 -12.3251
upperback 0.127699 5.11599 -9.03973
thorax -2.65177 2.65314 -3.00975
lowerneck -13.1482 6.25829 8.21661
upperneck 28.5453 5.79022 4.81646
head 11.6689 4.15052 1.21403
rclavicle -1.11319e-014 -7.31528e-014
rhumerus 92.0574 51.5836 -2.35642
rradius 108.208
rwrist -37.6538
rhand 11.0542 -33.2442
rfingers 7.12502
rthumb 36.1255 -59.5298
lclavicle -1.11319e-014 -7.31528e-014
lhumerus -68.312 12.3333 33.93
lradius 39.3594
lwrist 29.6534
lhand -37.7483 -10.1389
lfingers 7.12502
lthumb -10.7964 19.5636
rfemur 0 0 0
rtibia 0
rfoot 0 0
rtoes 0
lfemur -14.3442 -17.8567 -1.58732
ltibia 24.39
lfoot -21.4045 14.1952
ltoes -57.9114
349
root -1.37699 18.6726 5.85232 3.539 17.2018 -7.26515
lowerback 4.35083 4.45104 -12.2974
upperback 0.0641719 5.12014 -9.03089
thorax -2.61604 2.65587 -3.00269
lowerneck -13.3769 6.28732 8.09841
upperneck 28.6638 5.79473 4.96248
head 11.7516 4.16377 1.30148
rclavicle -3.97569e-015 -1.27222e-014
rhumerus 91.6821 51.4761 -2.322
rradius 108.587
rwrist -38.2551
rhand 10.9764 -33.3924
rfingers 7.12502
rthumb 36.0518 -59.6962
lclavicle -3.97569e-015 -1.27222e-014
lhumerus -67.2506 15.8067 29.3833
lradius 39.4029
lwrist 28.6124
lhand -37.7852 -10.5434
lfingers 7.12502
lthumb -10.8321 19.1573
rfemur 0 0 0
rtibia 0
rfoot 0 0
rtoes 0
lfemur -14.2651 -17.8918 -1.5524
ltibia 24.2994
lfoot -21.2503 14.1075
ltoes -58.0412
350
root -1.38391 18.6714 5.88053 3.52357 17.4435 -7.2703
lowerback 4.1391 4.41693 -12.306
upperback -0.0395815 5.10226 -8.99697
thorax -2.61008 2.64984 -2.94791
lowerneck -13.5016 6.3119 8.00829
upperneck 28.7065 5.81649 5.04844
head 11.7869 4.17778 1.3578
rclavicle -1.74931e-014 -4.45278e-014
rhumerus 91.2226 51.2687 -2.32084
rradius 109.026
rwrist -38.9706
rhand 10.5894 -33.398
rfingers 7.12502
rthumb 35.6851 -59.7913
lclavicle -1.74931e-014 -4.45278e-014
lhumerus -66.6663 19.4033 25.1012
lradius 39.8487
lwrist 27.6365
lhand -37.8945 -10.9512
lfingers 7.12502
lthumb -10.9375 18.7439
rfemur 0 0 0
rtibia 0
rfoot 0 0
rtoes 0
lfemur -14.2589 -18.0264 -1.50111
ltibia 24.2848
lfoot -21.1914 14.0618
ltoes -58.1014
